<svg xmlns="http://www.w3.org/2000/svg" viewBox="0 0 450 450"><path d="M68 100c-3 0-5 1-7 2-1 2-1 6-1 113v111l2 2 2 2h312l2-2 3-2V104l-3-2-2-3H224c-83 0-154 1-156 1m299 13c2 2 2 3 2 102s0 100-2 102-3 2-147 2-145 0-147-2-2-3-2-102 0-100 2-102 3-2 147-2 145 0 147 2"/><path d="M204 162c-3 0-4 6-5 24 0 14-1 18-2 19-2 2-2 2-22 2-12 0-21 0-22-1-3-2-4-5-4-17 0-15-1-24-4-26-2-1-8-1-10 0-3 2-4 12-4 58 0 51 0 48 9 48s9 0 9-24c0-18 0-20 1-22 2-1 5-2 23-2h23l3 3c0 1 1 12 1 23 0 13 0 21 1 22 3 3 15-1 15-4v-48c0-51 0-53-6-55-2-1-3-1-6 0m65 2c-3 3-11 18-11 21 0 0-1 4-3 7-2 4-4 9-5 11-1 3-3 9-5 13s-5 11-5 14c-1 4-3 9-5 12-1 3-3 7-4 9-1 3-2 6-3 8-3 5-2 8 2 10 6 3 11 0 14-7 9-25 7-23 32-23h19l3 3c4 3 9 13 12 21 1 4 2 5 4 6 6 2 13 0 13-4 0-1-1-5-3-7-2-3-3-8-4-10s-3-7-4-11c-2-4-4-9-5-11-1-3-2-8-4-11-2-4-5-10-6-15-2-5-4-11-6-13-1-3-4-8-5-11-4-12-6-14-14-14-4 0-5 1-7 2m12 27c9 18 11 27 7 31-2 2-3 2-10 2h-11c-6 0-7-9-2-18 2-4 4-9 5-13 1-7 3-10 6-10 1 0 3 4 5 8"/></svg>