<svg xmlns="http://www.w3.org/2000/svg" viewBox="0 0 450 450"><path d="M216 63c-2 1-3 3-4 5-2 9-4 16-8 22-2 4-5 9-6 11-1 3-3 8-5 11-1 4-3 8-4 10 0 2-2 6-3 9q-3 4.5-3 9c0 3-1 5-4 9-8 8-9 16-2 18 3 0 11-1 14-2 2-1 2-2 1-10v-9l4-7c3-4 6-8 8-9 3-1 4-1 7 0 4 2 7 2 10 1 1-1 4-1 7-1 4 0 5 0 7 3 4 4 8 18 8 25-1 4-1 5 1 6 3 2 20 3 23 2 1-1 2-2 2-5 0-4-1-6-5-11-2-2-4-6-5-9-3-10-10-27-13-33-2-4-5-9-5-12-1-3-3-8-5-10-3-5-3-7-6-17-2-5-2-6-5-7-4-1-5-1-9 1m4 35c1 1 4 5 6 9 3 7 3 11 0 15-3 2-5 2-12-1-6-4-7-4-4-15 1-5 2-10 3-10 1-2 5-1 7 2m-88 81c-8 1-11 3-12 8v189l2 2c2 2 3 2 17 2 9 0 18-1 22-1 5-1 7-1 12 0 7 2 79 2 90 1 15-2 16-2 19-1 2 0 10 1 19 1 20 1 19 1 19-19 0-7-1-16-1-19-1-4-1-6 0-12 2-9 2-87 0-99-1-6-1-9 0-12 1-6 1-32 0-35-2-5-5-6-20-5-8 0-16 0-19 1-5 1-8 1-18 0-16-2-67-2-81 0-9 1-12 1-19 0-9-2-18-2-30-1m30 13c0 1 1 2 1 2 0 1-4 5-9 10s-10 11-13 14c-7 9-10 6-9-9 2-15 3-17 16-18 8-1 12 0 14 1m136 0c8 0 11 3 11 9 0 2 1 6 1 9q1.5 9-3 12c-1 0-2 0-11-11l-9-9c-6-5-8-8-6-11 1-1 2-1 6-1 2 1 8 1 11 2m-62 1c4 1 10 3 14 5s8 3 10 3 4 1 9 6c11 9 18 16 21 20 1 2 4 5 5 6 7 7 15 33 15 47 0 17-7 40-17 51-10 12-15 16-18 18-2 1-4 3-4 3 0 2-7 7-10 8-2 1-7 2-10 4-5 3-8 3-18 4-7 1-15 1-23 0-11-1-13-1-20-5-5-2-9-4-10-4 0 0-3-2-6-5s-7-5-8-5l-5-5c-1-2-4-5-6-6-2-2-4-5-5-6-1-2-3-5-5-8-8-8-13-32-11-52 1-12 1-13 6-24 4-10 9-18 20-28 12-13 18-18 24-19 3 0 7-2 10-4 9-4 28-6 42-4m-94 152c6 7 12 13 17 17 4 3 5 5 3 7-3 2-25 0-28-2-1-2-3-23-1-26 1-3 4-2 9 4m168-3c1 1 1 2 0 6v10c0 9-2 11-10 11-3 0-8 0-11 1s-5 1-7 0c-3-2-3-5 1-8 5-3 16-13 17-16 3-6 7-8 10-4"/><path d="M193 218c-12 1-16 2-17 5s-1 4 2 8l3 4v35c0 33 0 35-2 40-1 3-2 6-2 8l1 3h27v-2c0-2-1-6-2-9-3-6-3-7-2-17 0-6 1-12 2-13 2-4 5-6 9-4 4 1 13 1 17 0 4-2 8 0 11 4 2 3 2 5 3 14 0 9 0 11-2 15-3 6-3 10-2 12 1 1 19 2 26 1 2 0 2-4-1-11l-3-7v-34c0-37 0-36 5-41 3-3 2-6-1-8s-26-4-28-2c-1 2 0 7 3 12 3 4 3 5 3 14-1 8-1 11-3 13-3 4-5 5-21 4-18-1-18-1-19-16v-10l3-6c4-6 5-8 3-11-1-1-3-2-13-1"/></svg>