<svg xmlns="http://www.w3.org/2000/svg" viewBox="0 0 450 450"><path fill="#fff" d="M183 57c-1 0-5 0-7 1-4 0-5 1-8 4-4 4-4 4-10 5-5 0-6 0-10 5-4 4-4 4-10 5-6 0-5-1-12 8-1 2-3 3-3 3-1 0-4 2-6 5-3 2-6 5-7 7-1 1-4 3-5 5-2 1-4 4-5 5s-4 3-5 5c-7 6-8 8-12 12-3 3-7 8-10 11-6 6-8 13-7 21 0 5 0 6-4 9-3 3-4 5-5 9-1 6-1 80 0 86 1 4 2 6 5 9 4 3 4 4 4 9-1 8 1 15 7 21 3 3 7 8 10 10 4 5 5 7 12 13 1 2 4 4 5 5s3 4 5 5c1 2 4 4 5 5 1 2 4 5 7 7 2 3 5 5 6 5 0 0 2 1 3 3 7 9 6 8 12 8 6 1 6 1 10 5 4 5 5 5 10 5 6 1 6 1 10 5 3 3 5 4 9 5 6 1 90 1 96 0 4-1 6-2 9-5 4-4 4-4 10-5 5 0 6 0 10-5 4-4 4-4 10-5 6 0 5 1 12-8 1-2 3-3 3-3 1 0 4-2 6-5 3-2 6-5 7-7 1-1 4-3 5-5 2-1 4-4 5-5s4-3 5-5c7-6 8-8 12-13 3-2 7-7 10-10 6-6 8-13 7-21 0-5 0-6 4-9 3-3 4-5 5-9 1-6 1-80 0-86-1-4-2-6-5-9-4-3-4-4-4-9 1-8-1-15-7-21-3-3-7-8-10-11-4-4-5-6-12-12-1-2-4-4-5-5s-3-4-5-5c-1-2-4-4-5-5-1-2-4-5-7-7-2-3-5-5-6-5 0 0-2-1-3-3-7-9-6-8-12-8-6-1-6-1-10-5-4-5-5-5-10-5-6-1-7-1-9-4-2-2-5-5-7-5-3-1-87-2-93-1m71 13c4 1 9 2 12 3 3 2 10 4 14 5 5 1 10 3 13 5s7 4 9 5c5 2 14 9 22 16 3 3 7 6 9 6 3 2 12 12 18 20 2 3 5 7 6 9 7 7 20 39 23 56 1 8 1 42 0 50-3 17-15 48-23 56-1 2-4 6-6 9-6 8-15 18-19 20-2 1-5 4-7 6-5 5-19 14-25 17-4 2-8 4-9 5s-7 3-11 4c-5 2-13 4-16 6-7 2-8 2-32 3-29 0-40-1-48-4-3-2-10-4-14-5-5-1-10-3-13-5s-7-4-9-5c-5-2-15-9-21-15-3-3-7-5-9-6s-5-5-8-8c-2-3-5-6-5-6-1-1-3-3-5-7-3-3-6-7-7-9-3-3-11-18-14-26-1-3-3-9-4-13-5-13-6-21-6-42s1-28 5-41c2-5 4-12 5-16 2-3 4-9 6-11 2-3 3-6 3-7 0 0 2-3 4-5 2-3 5-7 8-10 5-8 14-18 17-20 2 0 6-3 9-6 8-7 17-14 22-16 2-1 6-3 9-5s8-4 13-5c4-1 11-3 14-5 3-1 8-2 11-3 8-1 51-1 59 0"/><path fill="#fff" d="M204 84c-2 1-10 2-16 4s-14 4-16 5c-3 1-7 2-9 4-3 1-7 3-9 4-3 1-7 4-9 6-3 2-6 5-9 6-10 7-30 29-34 39-1 3-3 6-4 7-3 4-5 8-6 16-1 5-3 12-5 16-2 6-3 11-4 20-1 14 0 24 4 36 2 5 4 12 5 17 2 10 11 28 18 36 8 10 23 24 27 27 3 1 5 3 7 5 1 1 4 3 6 4l16 8c1 1 8 3 15 5s15 4 19 5c15 5 36 4 54-1 5-2 13-4 18-5 6-1 10-2 13-5 3-2 8-4 11-6 3-1 7-3 9-5 3-2 6-4 8-5 8-4 30-29 34-39 1-3 4-7 6-11s4-8 5-12c1-3 3-12 5-19 5-19 5-33 2-46-2-5-4-15-6-21-2-8-4-13-7-18l-5-10c-2-7-27-35-34-38-3-1-6-4-8-6s-5-4-8-5-7-2-9-4c-5-4-8-5-16-7-4 0-12-3-17-4-9-3-10-3-28-4-10 0-21 1-23 1m54 20c6 0 7 0 10 4 3 3 5 4 9 5 2 0 6 1 8 3s5 4 8 5c3 2 4 3 6 6 2 5 5 7 10 7 2 0 4 2 10 7s6 7 7 11c1 5 2 6 5 9 5 4 5 5 5 10 1 6 1 7 5 10l5 4v69l-5 5c-4 3-4 4-5 10 0 5 0 6-5 9-3 4-4 5-5 10-1 4-1 6-4 8-1 1-4 4-5 6s-4 5-5 6c-2 1-5 3-6 4-2 3-4 3-8 4-5 1-6 1-10 6-4 4-4 4-10 5-5 0-6 0-9 4l-4 5h-79l-4-5c-4-4-5-4-10-4-6-1-6-1-10-5-4-5-5-5-10-6-4-1-6-1-8-4-1-1-4-3-6-4-1-1-4-4-5-6-1-1-3-4-5-5-2 0-4-2-5-4s-3-5-5-6c-2-3-3-4-3-8 0-5-2-13-4-17-1-1-3-3-4-5-3-2-3-2-3-11v-61l5-4c4-3 4-4 5-10 0-5 0-6 5-10 3-3 4-4 5-9 1-4 1-6 4-8 1-1 4-4 5-6s3-5 5-6c2 0 4-3 5-5 1-1 3-4 5-4 1-1 4-3 5-5 3-2 4-3 8-3 8 0 16-3 21-7 4-4 4-4 10-4 3 1 7 1 10 0z"/><path fill="#fff" d="M262 147c-8 0-11 2-13 6q-3 4.5-6 6c-5 2-6 6-7 20-1 16-1 17-11 17s-10-1-11-17c0-7-1-14-2-15-1-2-3-4-5-5-3-1-5-3-6-6-2-3-3-4-6-5-2-1-4-1-5-1s-3 0-5 1c-3 1-4 2-6 5-1 3-3 5-6 6-7 3-6 2-6 61s-1 58 6 61c3 1 5 3 6 6 2 3 3 4 6 5 4 1 6 1 10 0 3-1 4-2 6-5 1-3 3-5 6-6 2-1 4-3 5-5 1-1 2-8 2-15 1-16 1-17 11-17s10 1 11 17c1 14 2 18 7 20q3 1.5 6 6c3 5 6 6 16 6s13-1 16-6q3-4.5 6-6c7-3 7-2 7-61s0-58-7-61q-3-1.5-6-6c-1-3-3-4-5-5-4-1-10-2-14-1m-67 18c4 4 5 11 5 25 0 18 0 19 10 20h24c16-1 19-1 20-3 2-2 2-3 2-20 0-16 1-18 3-21 1-2 2-3 6-3s5 1 6 3c2 3 3 4 3 55v54c-1 3-5 6-9 6-3 0-8-3-8-5-1-1-1-11-1-22 0-20 0-21-2-23l-3-3-22-1c-15 0-22 0-24 1-4 2-5 6-5 26 0 10 0 20-1 22-2 6-16 6-18-1-1-1-1-24-1-51 0-50 0-54 5-59 1-1 3-2 5-2s4 1 5 2"/><path d="M195 70c-3 1-8 2-11 3-3 2-10 4-14 5-5 1-10 3-13 5s-7 4-9 5c-5 2-14 9-22 16-3 3-7 6-9 6-3 2-12 12-17 20-3 3-6 7-8 10-2 2-4 5-4 5 0 1-1 4-3 7-2 2-4 8-6 11-1 4-3 11-5 16-4 13-5 20-5 41s1 29 6 42c1 4 3 10 4 13 3 8 11 23 14 26 1 2 4 6 7 9 2 4 4 6 5 7 0 0 3 3 5 6 3 3 6 7 8 8s6 3 9 6c6 6 16 13 21 15 2 1 6 3 9 5s8 4 13 5c4 1 11 3 14 5 8 3 19 4 48 4 24-1 25-1 32-3 3-2 11-4 16-6 4-1 10-3 11-4s5-3 9-5c6-3 20-12 25-17 2-2 5-5 7-6 4-2 13-12 19-20 2-3 5-7 6-9 8-8 20-39 23-56 1-8 1-42 0-50-3-17-16-49-23-56-1-2-4-6-6-9-6-8-15-18-18-20-2 0-6-3-9-6-8-7-17-14-22-16-2-1-6-3-9-5s-8-4-13-5c-4-1-11-3-14-5-3-1-8-2-12-3-8-1-51-1-59 0m60 17c5 1 13 4 17 4 8 2 11 3 16 7 2 2 6 3 9 4s6 3 8 5 5 5 8 6c7 3 32 31 34 38l5 10c3 5 5 10 7 18 2 6 4 16 6 21 3 13 3 27-2 46-2 7-4 16-5 19-1 4-3 8-5 12s-5 8-6 11c-4 10-26 35-34 39-2 1-5 3-8 5-2 2-6 4-9 5-3 2-8 4-11 6-3 3-7 4-13 5-5 1-13 3-18 5-18 5-39 6-54 1-4-1-12-3-19-5s-14-4-15-5l-16-8c-2-1-5-3-6-4-2-2-4-4-7-5-4-3-19-17-27-27-7-8-16-26-18-36-1-5-3-12-5-17-4-12-5-22-4-36 1-9 2-14 4-20 2-4 4-11 5-16 1-8 3-12 6-16 1-1 3-4 4-7 4-10 24-32 34-39 3-1 6-4 9-6 2-2 6-5 9-6 2-1 6-3 9-4 2-2 6-3 9-4 2-1 10-3 16-5 17-5 19-5 39-5 18 1 19 1 28 4"/><path d="M185 165c-5 5-5 9-5 59 0 27 0 50 1 51 2 7 16 7 18 1 1-2 1-12 1-22 0-20 1-24 5-26 2-1 9-1 24-1l22 1 3 3c2 2 2 3 2 23 0 11 0 21 1 22 0 2 5 5 8 5 4 0 8-3 9-6v-54c0-51-1-52-3-55-1-2-2-3-6-3s-5 1-6 3c-2 3-3 5-3 21 0 17 0 18-2 20-1 2-4 2-20 3h-24c-10-1-10-2-10-20 0-20-2-27-10-27-2 0-4 1-5 2"/></svg>