<svg xmlns="http://www.w3.org/2000/svg" viewBox="0 0 450 450"><path fill="#fffefd" d="M215 48c-2 0-5 3-8 6-3 2-6 5-7 6s-3 4-5 6l-5 5c-2 0-4 4-4 9 0 4-1 5-4 8-4 4-5 7-5 13 0 5 2 8 6 10 3 1 5 4 6 6 0 1 2 5 4 7l3 5v61c-1 4-5 7-10 8-3 0-5 2-8 4-4 4-4 4-10 5-6 0-5 0-12 8-1 2-3 3-3 3-1 0-5 3-8 8-4 4-10 9-12 12-6 6-8 13-7 21 0 5 0 6-4 9-5 5-5 8-5 27s0 22 5 27c4 3 4 4 4 9-1 8 1 15 7 21 2 3 8 8 12 12 3 5 7 8 8 8 0 0 2 1 3 3 7 8 6 8 12 8 6 1 6 1 10 5 5 5 7 5 42 5s37 0 42-5c4-4 4-4 10-5 6 0 5 0 12-8 1-2 3-3 3-3 1 0 5-3 9-8 3-4 9-9 11-12 6-6 8-13 7-21 0-5 0-6 4-9 5-5 6-8 6-27s-1-22-6-27c-4-3-4-4-4-9 1-8-1-15-7-21-2-3-8-8-11-12-4-5-8-8-9-8 0 0-2-1-3-3-7-8-6-8-12-8-6-1-6-1-10-5-3-2-5-4-8-4-5-1-9-4-10-8v-61l3-5c2-2 4-6 4-7 1-2 3-5 6-6 4-2 6-5 6-10 0-6-1-9-5-13-3-3-4-4-4-9-1-6-1-7-4-8-1-2-4-4-6-6-1-2-4-4-5-5 0-1-3-4-6-6-6-6-11-8-18-6m6 11c7 0 7 1 9 3 0 2 1 4 1 5s2 4 4 8c7 11 10 16 10 17l2 6c1 5 2 11 0 13 0 1 0 1-1 0s-1-1-3 0c-1 0-3 1-5 1-6 1-6 2-7 49 0 47 0 44 9 45 2 1 8 2 11 4 4 2 9 5 12 6 2 1 7 4 9 6 3 2 6 4 7 4l4 4c1 2 4 5 6 7 2 1 4 4 5 6 2 3 4 6 5 9 2 2 3 6 4 9s3 9 5 14c3 9 3 10 3 20s0 11-3 20c-2 5-4 11-5 14s-2 7-4 9c-1 3-3 6-5 9-1 2-3 5-5 6-2 2-5 5-6 7l-4 4c-1 0-4 2-6 4-5 4-6 4-20 11l-9 4h-47l-9-4c-15-7-16-7-21-11-2-2-5-4-6-4l-4-4c-1-2-4-5-6-7-2-1-4-4-5-6-2-3-4-6-5-9-2-2-3-6-4-9s-3-9-5-14c-3-9-3-10-3-20s0-11 3-20c2-5 4-11 5-14s2-7 4-9c1-3 3-6 5-9 1-2 3-5 5-6 2-2 5-5 6-7l4-4c1 0 4-2 7-4 2-2 7-5 9-6 3-1 8-4 12-6 3-2 9-3 11-4 9-1 9 2 9-45-1-29-1-42-2-45-1-2-2-3-7-4-3-1-6-1-6 0-1 1-3 0-3-3-1-4 3-19 6-23 2-2 3-5 4-6 1-2 2-3 2-3 2 0 6-8 6-15 0-1 4-5 5-4 0 0 4 1 7 1"/><path fill="#fffefd" d="M210 225c-1 1-4 2-5 2-2 1-7 3-10 5-4 1-9 3-10 3-2 1-5 3-8 6-2 2-6 5-7 6s-4 4-6 8c-3 3-5 7-7 8-7 8-7 56 0 64 2 1 5 5 7 8 2 4 6 8 8 9 2 2 6 5 9 7 4 4 5 4 11 5 5 1 7 2 10 4 5 5 7 5 19 5 8 0 9 0 16-3 4-2 10-5 13-5 7-2 10-5 15-10 2-2 5-4 5-4 1 0 3-3 6-7 2-3 5-8 7-9 7-8 7-56 0-64-2-1-4-5-6-7-4-6-5-7-10-11-2-1-5-4-8-6-3-3-5-5-11-6-3 0-8-2-10-3-6-5-11-6-18-6-4 0-9 1-10 1m42 18c1 2 2 3 2 4 0 2-7 16-9 17-1 1-5 3-8 3-7 1-8 2-8 3 0 2 6 7 8 7 0 0 2 1 3 3s3 5 5 7 3 5 3 8c1 2 2 5 2 8 2 8 1 13-2 19q-10.5 19.5-15 21c-11 3-12 4-14 6-2 4-7 4-11 1-2-1-7-3-11-4-5-1-9-2-10-3-2-1-1-9 2-15s5-6 17-3c11 3 18 2 20-2 1-2 1-6 1-10-1-7-1-8-5-12-5-5-8-7-11-7s-17-5-18-6-1-5-1-8c0-6 0-8 4-14 2-4 4-9 4-10s1-3 2-5c3-4 7-5 22-5 10 0 12 0 16-2 5-4 8-4 12-1m-67 16q3 4.5-3 9c-5 3-5 4-5 10s2 10 6 13c6 3 9 12 7 18-2 7-3 8-9 11-6 2-6 2-8 1-3-2-3-2-3 0-1 2-3 0-3-2 0-1-1-2-1-3-2-1-2-3-2-9v-12c0-15 0-20 2-21 0-1 1-2 1-3 0-2 1-2 2-2 4 1 5-1 6-7 1-7 3-9 7-6 2 0 3 2 3 3m83 10c1 1 1 1 2 0 1-2 1-2 4 3 2 3 2 5 2 23 0 16 0 20-2 21-1 1-1 2-1 3 1 1-1 3-3 3-3 0-5-3-6-13-1-5-1-11-2-13 0-2-2-5-5-8-6-7-6-11 3-17 4-3 6-4 8-2m-55 39c3 4-2 7-6 3-1-2-1-2 1-3 2-2 4-2 5 0m50 23c1 1 0 4-1 4-3 1-4-1-4-3 1-3 3-3 5-1"/><path fill="#fab869" d="M215 67c-1 1-3 4-4 7s-4 7-6 10c-8 12-8 18 1 21 3 0 7 3 9 6 1 2 1 8 1 42 0 42 0 46 4 46s4-4 4-46c0-45-1-42 9-48 3-1 6-4 7-5 1-3 0-8-4-13-2-3-5-8-6-12-2-3-4-7-5-8-3-3-8-3-10 0m7 1c2 1 5 7 6 11 1 2 3 5 5 8 4 3 4 5 4 8 1 5 0 5-11 9l-6 2-8-3c-10-3-10-4-10-7 0-4 1-6 6-11 1-2 4-6 5-10 3-7 5-9 9-7m-7 138c-3 2-8 4-11 5s-8 3-11 4c-3 2-7 3-10 4s-5 2-16 9c-4 3-18 18-18 20 0 1-2 4-4 8-11 19-11 59 0 78 2 4 4 7 4 8 0 2 14 17 18 20 11 7 13 8 16 9s7 2 11 4c8 4 22 6 36 4 8-1 12-2 16-4s8-3 11-4 5-2 16-9c4-3 18-18 18-20 0-1 2-4 4-8 3-4 5-10 6-17 5-21 2-47-6-61-2-4-4-7-4-8 0-2-14-17-18-20-11-7-13-8-16-9s-7-2-10-4-8-3-10-4-7-3-11-5c-3-1-6-3-6-3s-3 1-5 3m16 5c5 2 9 4 9 5 0 2-2 2-20 2-25 0-26-1-11-7 9-4 13-4 22 0m1 10c8 1 11 2 14 4 1 1 6 3 9 5 7 3 21 14 24 20 1 2 4 5 6 7 2 3 4 6 4 8 1 3 3 9 4 14 2 6 3 11 3 16s-1 10-3 16c-1 5-3 11-4 14 0 2-2 5-4 8-2 2-5 5-6 7-3 5-17 17-23 20-3 1-7 3-10 5-3 3-5 3-14 4-15 2-33 0-37-3-1-1-6-4-10-5-7-4-21-15-24-21-1-2-4-5-6-7-2-3-4-6-4-8-1-3-3-9-4-14-4-13-4-20 1-34 1-6 3-12 3-12 0-1 2-4 4-7 2-2 5-6 6-8 3-5 17-17 23-20 3-1 7-3 10-5s6-3 12-4c11-2 15-2 26 0m-43 1c2 1-1 4-7 6-3 2-8 5-11 8-2 3-6 5-7 6-1 0-3 3-5 6s-4 7-6 8c-2 2-3 3-4 8-1 7-4 13-6 13-1 0-2-4-2-7 1-1 1-3 1-4 1-2 3-5 4-7 2-2 4-5 4-7 1-5 14-19 19-22 2-1 4-3 5-4 3-3 13-6 15-4m72 1c2 1 4 2 5 3s3 3 5 4c4 2 16 16 18 19 1 2 1 4 1 6 0 1 1 2 2 3 4 2 8 11 6 17-1 6-5-1-7-11-1-6-2-7-5-9-1-1-4-4-5-7-2-3-4-5-5-6s-5-4-8-6c-3-3-8-6-11-8-4-2-6-3-6-5 0-3 4-3 10 0m-115 93c1 2 2 7 3 10 1 6 2 7 5 9 1 1 4 4 5 7 2 3 4 5 5 6s5 4 8 6c3 3 8 6 11 8 6 3 8 5 4 7-2 1-9-2-12-5-2-1-5-3-6-4-4-2-17-16-18-19-1-2-1-4-1-6 0-1-1-2-2-3-3-2-5-5-6-10-2-9 1-12 4-6m152-1c1 1 1 3 0 5 0 1 0 3-1 5 0 1-2 4-3 6-2 2-4 5-4 7-1 5-13 19-18 22-2 1-5 3-7 4-4 3-9 5-13 5-3-1-1-4 6-7 3-2 8-5 10-7 2-3 6-6 7-7 2-1 4-4 6-7 1-2 4-5 6-6 2-2 3-3 4-9 2-11 6-16 7-11m-59 57c6 2-5 6-19 6s-25-3-19-6c3-1 34-1 38 0"/><path fill="#fab869" d="M212 251c-5 2-14 19-14 27 0 6 2 8 12 11 5 1 11 3 13 5 4 3 7 9 9 14 2 9-4 24-9 24-1 0-2 1-3 2-3 3-1 5 4 5 2 0 4-1 9-5 3-3 7-6 7-8 3-6 5-14 4-22-1-13-9-23-23-28-7-3-9-5-9-10 0-4 3-5 14-4 12 1 17-2 17-8 0-2-1-3-2-3-2-1-26-1-29 0m27 2c2 2 1 4-1 5-2 2-5 2-15 2h-13c-2 1-1 8 1 12 1 3 3 4 8 6 12 5 15 7 19 13 3 6 4 8 2 23 0 10-1 11-3 13s-3 3-4 3c-2 0-1-7 1-11 3-6 3-7-1-14-5-11-10-15-22-18-4-1-6-3-8-5s-2-3-2-8c1-7 3-11 6-13l2-2c0-1 1-3 2-4 2-2 3-3 11-3 10-1 15 0 17 1m-46 77c-3 3-2 7 0 9 4 4 16 3 19 0 2-3-1-6-6-9-7-3-11-3-13 0m11 1c4 3 5 5 2 7-5 4-13 2-13-3s5-6 11-4"/><path fill="#f89e33" d="M217 68c-1 1-3 4-4 7-1 4-4 8-5 10-5 5-6 7-6 11 0 3 0 4 10 7l8 3 6-2c11-4 12-4 11-9 0-3 0-5-4-8-2-3-4-6-5-8-1-4-4-10-6-11s-3-1-5 0m-8 143c-8 3-10 5-9 6 0 1 9 1 20 1 18 0 20 0 20-2-1-2-15-8-20-8-2 0-7 1-11 3m-29 12c-3 1-5 2-6 3s-3 3-5 4c-5 3-18 17-19 22 0 2-2 5-4 7-1 2-3 5-4 7 0 1 0 3-1 4 0 3 1 7 2 7 2 0 5-6 6-13 1-5 2-6 4-8 2-1 4-5 6-8s4-6 5-6c1-1 5-3 7-6 3-3 8-6 11-8 6-2 9-5 7-6-1-2-5-1-9 1m71 0c0 2 2 3 6 5 3 2 8 5 11 8 3 2 7 5 8 6s3 3 5 6c1 3 4 6 5 7 3 2 4 3 5 9 2 10 6 17 7 11 2-6-2-15-6-17-1-1-2-2-2-3 0-2 0-4-1-6-2-3-14-17-18-19-2-1-4-3-5-4-2-2-9-5-12-5-2 0-3 0-3 2m-29 29c-8 0-9 1-11 3-1 1-2 3-2 4l-2 2c-3 2-5 6-6 13 0 5 0 6 2 8s4 4 8 5c12 3 17 7 22 18 4 7 4 8 1 14-2 4-3 11-1 11 1 0 2-1 4-3s3-3 3-13c2-15 1-17-2-23-4-6-7-8-19-13-5-2-7-3-8-6-2-4-3-11-1-12h13c13 0 17-1 17-4 0-4-5-5-18-4m-80 63c-2 6 2 15 6 17 1 1 2 2 2 3 0 2 0 4 1 6 1 3 14 17 18 19 1 1 4 3 6 4 3 3 10 6 12 5 4-2 2-4-4-7-3-2-8-5-11-8-3-2-7-5-8-6s-3-3-5-6c-1-3-4-6-5-7-3-2-4-3-5-9-2-10-6-17-7-11m152 1c-1 2-2 7-3 10-1 6-2 7-4 9-2 1-5 4-6 6-2 3-4 6-6 7-1 1-5 4-7 7-2 2-7 5-10 7-7 3-9 6-6 7 4 0 9-2 13-5 2-1 5-3 7-4 5-3 17-17 18-22 0-2 2-5 4-7 1-2 3-5 3-6 1-2 1-4 1-5 1-3 0-7-1-7s-2 2-3 3m-100 15c-2 2-1 5 1 7 4 4 14 1 12-3-1-4-10-6-13-4m7 41c-6 3 5 6 19 6s25-4 19-6c-4-1-35-1-38 0"/><path fill="#fccd94" d="M216 63c-2 1-3 3-5 7-1 3-4 7-5 9-4 6-9 16-10 20 0 5 1 7 6 7 2 1 5 2 6 3 5 3 5 5 5 52v43l-3 3c-3 1-6 2-8 2-2 1-7 2-10 4s-8 4-11 5c-10 4-29 20-33 28-1 2-3 6-5 9-1 3-3 8-4 11s-2 9-4 12c-3 10-3 24 0 34 2 3 3 9 4 12s3 8 4 11c2 3 4 7 5 9 2 5 13 15 21 21 4 3 10 6 14 8s10 4 13 5c4 2 6 2 24 2s20 0 25-2c2-1 8-3 12-5s10-5 14-8c8-6 19-16 21-21 1-2 3-6 5-9 1-3 3-8 4-11s2-9 4-12c2-6 2-9 2-17s0-11-2-17c-2-3-3-9-4-12s-3-8-4-11c-2-3-4-7-5-9-4-8-23-24-33-28-3-1-8-3-11-5s-8-3-10-4c-2 0-5-1-8-2l-3-3v-44c0-51 0-49 10-54 4-2 6-3 6-5 0-3-3-12-6-17-2-2-5-7-7-11-4-9-8-12-14-10m9 4c1 1 3 5 5 8 1 4 4 9 6 12 4 5 5 10 4 13-1 1-4 4-7 5-10 6-9 3-9 48 0 42 0 46-4 46s-4-4-4-46c0-34 0-40-1-42-2-3-6-6-9-6-9-3-9-9-1-21 2-3 5-7 6-10s3-6 4-7c2-3 7-3 10 0m1 139c4 2 9 4 11 5s7 2 10 4 7 3 10 4 5 2 16 9c4 3 18 18 18 20 0 1 2 4 4 8 3 4 5 10 6 16 5 22 2 48-6 62-2 4-4 7-4 8 0 2-14 17-18 20-11 7-13 8-16 9s-7 2-11 4-8 3-16 4c-14 2-28 0-36-4-4-2-8-3-11-4s-5-2-16-9c-4-3-18-18-18-20 0-1-2-4-4-8-11-19-11-59 0-78 2-4 4-7 4-8 0-2 14-17 18-20 11-7 13-8 16-9s7-2 10-4c3-1 8-3 11-4s8-3 11-5c2-2 5-3 5-3s3 2 6 3"/><path fill="#fccd94" d="M206 221c-6 1-9 2-12 4s-7 4-10 5c-6 3-20 15-23 20-1 2-4 6-6 8-2 3-4 6-4 7 0 0-2 6-3 12-5 14-5 21-1 34 1 5 3 11 4 14 0 2 2 5 4 8 2 2 5 5 6 7 3 6 17 17 24 21 4 1 9 4 10 5 4 3 22 5 37 3 9-1 11-1 14-4 3-2 7-4 10-5 6-3 20-15 23-20 1-2 4-5 6-7 2-3 4-6 4-8 1-3 3-9 4-14 2-6 3-11 3-16s-1-10-3-16c-1-5-3-11-4-14 0-2-2-5-4-8-2-2-5-5-6-7-3-6-17-17-24-20-3-2-8-4-9-5-3-2-6-3-14-4-11-2-15-2-26 0m28 2c3 0 8 2 10 4 2 1 7 3 10 4s7 4 9 6c3 2 6 5 8 6 2 2 6 6 8 9 2 4 5 8 6 9 3 4 7 20 8 31 0 8 0 11-3 21-1 8-3 13-5 15-1 2-4 6-6 9q-9 13.5-30 24l-12 6-13 1c-14 0-23-1-27-4l-10-5c-8-3-21-14-26-22-2-3-5-7-6-8-3-4-7-20-8-31 0-8 0-11 2-21 2-6 4-13 5-14 11-18 20-26 37-34 6-3 13-6 16-7 6-1 19-1 27 1"/><path fill="#fccd94" d="M221 249c-12 1-14 2-19 12-10 20-9 25 8 29 11 3 18 9 20 19 2 5-1 15-4 18-4 4-10 6-14 4-14-6-18-6-21-2-2 4-2 10 0 12 3 2 14 3 21 2 18-3 19-3 27-12 2-3 5-7 6-12 2-6 2-7 1-15s-1-9-5-16c-4-5-6-7-11-10-4-2-8-4-9-5-5-1-7-3-7-6 0-4-1-3 14-3 8 0 11-1 13-2 3-2 5-7 5-11 0-2-1-3-7-3-4 0-12 1-18 1m20 2c1 0 2 1 2 3 0 6-5 9-17 8-11-1-14 0-14 4 0 5 2 7 9 10 9 3 15 8 19 15 3 5 4 7 4 13 1 8-1 16-4 22 0 2-4 5-7 8-5 4-7 5-9 5-5 0-7-2-4-5 1-1 2-2 3-2 5 0 11-15 9-24-2-5-5-11-9-14-2-2-8-4-13-5-10-3-12-5-12-11 0-8 9-25 14-27 3-1 27-1 29 0m-35 79c5 3 8 6 6 9-3 3-15 4-19 0-2-2-3-6 0-9 2-3 6-3 13 0"/><path fill="#fef4e1" d="M211 59c-1 1-2 3-2 3 0 7-4 15-6 15 0 0-1 1-2 3-1 1-2 4-4 6-3 4-7 19-6 23 0 3 2 4 3 3 0-1 3-1 6 0 5 1 6 2 7 4 1 3 1 16 2 45 0 47 0 44-9 45-2 1-8 2-11 4-4 2-9 5-12 6-2 1-7 4-9 6-3 2-6 4-7 4l-4 4c-1 2-4 5-6 7-2 1-4 4-5 6-2 3-4 6-5 9-2 2-3 6-4 9s-3 9-5 14c-3 9-3 10-3 20s0 11 3 20c2 5 4 11 5 14s2 7 4 9c1 3 3 6 5 9 1 2 3 5 5 6 2 2 5 5 6 7l4 4c1 0 4 2 6 4 5 4 6 4 21 11l9 4h47l9-4c14-7 15-7 20-11 2-2 5-4 6-4l4-4c1-2 4-5 6-7 2-1 4-4 5-6 2-3 4-6 5-9 2-2 3-6 4-9s3-9 5-14c3-9 3-10 3-20s0-11-3-20c-2-5-4-11-5-14s-2-7-4-9c-1-3-3-6-5-9-1-2-3-5-5-6-2-2-5-5-6-7l-4-4c-1 0-4-2-7-4-2-2-7-5-9-6-3-1-8-4-12-6-3-2-9-3-11-4-9-1-9 2-9-45 1-47 1-48 7-49 2 0 4-1 5-1 2-1 2-1 3 0s1 1 1 0c2-2 1-8 0-13l-2-6c0-1-3-6-10-17-2-4-4-7-4-8s-1-3-1-5c-2-2-2-3-9-3-3 0-7-1-7-1 0-1-2 0-3 1m14 3c2 1 4 4 7 10 2 5 6 11 7 14 5 6 8 17 6 20 0 1-3 2-6 3-7 2-8 3-9 14-1 5-1 25-1 45 0 36 0 36 2 37s4 2 7 3c4 0 17 6 27 11 8 4 28 22 28 25 0 1 2 4 4 8s4 9 5 12 3 9 4 13c3 6 3 8 3 18s0 12-3 18c-1 4-3 10-4 13s-3 8-5 12-4 7-4 8-14 15-20 20c-6 4-9 6-22 12l-8 3h-45l-9-3c-13-6-15-8-22-13-7-4-20-18-20-19s-2-4-4-8-4-9-5-12-3-9-4-13c-3-6-3-8-3-18s0-12 3-18c1-4 3-10 4-13s3-8 5-12 4-7 4-8 14-15 20-20c6-4 8-5 21-11 5-3 12-5 14-5 3-1 5-2 7-3s2-1 2-37c0-41-1-53-4-56-1-1-4-2-7-3-3 0-6-1-6-2-3-3 2-16 10-28 3-4 5-9 6-11 1-3 2-5 3-6 2-1 9-1 12 0"/><path fill="#fef4e1" d="M207 224c-4 2-12 5-18 8-9 4-12 6-18 12-4 4-10 11-13 15-4 6-5 8-7 17-2 12-2 26 0 38 2 9 3 12 6 15 1 1 3 4 5 7 5 7 21 21 26 22 2 0 5 1 7 2 12 6 12 6 25 6h13l9-4c5-2 12-5 14-6 6-3 19-15 25-24 6-8 7-14 9-28 1-7 1-12 0-18-2-12-4-22-6-24-1-1-3-4-6-8-6-8-20-20-27-22-3-1-8-3-10-4-10-6-23-7-34-4m24 2c2 0 5 2 7 4 2 1 7 3 10 3 6 1 8 3 11 6 3 2 6 5 8 6 5 4 6 5 10 11 2 2 4 6 6 7 7 8 7 56 0 64-2 1-5 6-7 9-3 4-5 7-6 7 0 0-3 2-5 4-5 5-8 8-15 10-3 0-9 3-13 5-7 3-8 3-16 3-12 0-14 0-19-5-3-2-5-3-10-4-6-1-7-1-11-5-3-2-7-5-9-7-2-1-6-5-8-9-2-3-5-7-7-8-7-8-7-56 0-64 2-1 4-5 7-8 2-4 5-7 6-8s5-4 7-6c3-3 6-5 8-6 1 0 6-2 10-3 3-2 8-4 10-5 6-3 8-3 15-3 4 0 9 1 11 2"/><path fill="#fef4e1" d="M240 244c-4 2-6 2-16 2-15 0-19 1-22 5-1 2-2 4-2 5s-2 6-4 10c-4 6-4 8-4 14 0 3 0 7 1 8s15 6 18 6 6 2 11 7c4 4 4 5 5 12 0 4 0 8-1 10-2 4-9 5-20 2-12-3-14-3-17 3s-4 14-2 15c1 1 5 2 10 3 4 1 9 3 11 4 4 3 9 3 11-1 2-2 3-3 14-6 3-1 8-8 15-21 3-6 4-11 2-19 0-3-1-6-2-8 0-3-1-6-3-8s-4-5-5-7-3-3-3-3c-2 0-8-5-8-7 0-1 1-2 8-3 3 0 7-2 8-3 2-1 9-15 9-17 0-1-1-2-2-4-4-3-7-3-12 1m9 2c1 1 1 5-2 12-3 6-6 7-19 7-8 0-11 1-12 2 0 1 4 4 6 4 3 0 15 9 19 14 2 3 4 6 5 7 0 1 1 6 2 12 1 9 1 10-1 16-1 3-5 9-8 13-6 7-5 7-20 12-7 2-7 2-17 0-7-1-11-2-12-3-4-4-2-13 3-17 3-1 3-1 13 2 9 3 10 3 14 2 6-2 8-5 8-13 1-6 1-8-1-11-3-7-10-11-18-13-10-3-14-5-15-9-2-4-1-8 4-18 2-4 4-8 4-10 2-6 10-8 26-8 5 0 10-1 12-1 5-2 7-2 9 0m-72 10c-1 1-1 1 1 0 1-1 2-1 2-2 0 0-1 0-3 2m93 13c0 1 1 2 2 3 2 1 2 1 1-1-1-3-3-4-3-2m-103 1c0 2 0 2 2 1 3 0 2-2 0-2-1 0-2 1-2 1"/><path fill="#fef4e1" d="M208 308c-2 1-2 1-1 3 4 4 9 1 6-3-1-2-3-2-5 0m-41 11c1 3 2 3 3 1 0-1-1-2-2-2-1-1-1 0-1 1m103 0c-3 1-2 3 0 3s4-2 3-3-1-1-3 0m-12 13c0 2 1 4 4 3 1 0 2-3 1-4-2-2-4-2-5 1"/><path fill="#fee3bd" d="M213 62c-1 1-2 3-3 6-1 2-3 7-6 11-8 12-13 25-10 28 0 1 3 2 6 2 3 1 6 2 7 3 3 3 4 15 4 56 0 36 0 36-2 37s-4 2-7 3c-2 0-9 2-14 5-13 6-15 7-21 11-6 5-20 19-20 20s-2 4-4 8-4 9-5 12-3 9-4 13c-3 6-3 8-3 18s0 12 3 18c1 4 3 10 4 13s3 8 5 12 4 7 4 8 13 15 20 19c7 5 9 7 22 13l9 3h45l8-3c13-6 16-8 22-12 6-5 20-19 20-20s2-4 4-8 4-9 5-12 3-9 4-13c3-6 3-8 3-18s0-12-3-18c-1-4-3-10-4-13s-3-8-5-12-4-7-4-8c0-3-20-21-28-25-10-5-23-11-27-11-3-1-5-2-7-3s-2-1-2-37c0-20 0-40 1-45 1-11 2-12 9-14 3-1 6-2 6-3 2-3-1-14-6-20-1-3-5-9-7-14-3-6-5-9-7-10-3-1-10-1-12 0m12 3c1 1 4 4 5 8 2 4 5 9 7 11 3 5 6 14 6 17 0 2-2 3-6 5-10 5-10 3-10 54v44l3 3c3 1 6 2 8 2 2 1 7 2 10 4s8 4 11 5c10 4 29 20 33 28 1 2 3 6 5 9 1 3 3 8 4 11s2 9 4 12c2 6 2 9 2 17s0 11-2 17c-2 3-3 9-4 12s-3 8-4 11c-2 3-4 7-5 9-2 5-13 15-21 21-4 3-10 6-14 8s-10 4-12 5c-5 2-7 2-25 2s-20 0-24-2c-3-1-9-3-13-5s-10-5-14-8c-8-6-19-16-21-21-1-2-3-6-5-9-1-3-3-8-4-11s-2-9-4-12c-3-10-3-24 0-34 2-3 3-9 4-12s3-8 4-11c2-3 4-7 5-9 4-8 23-24 33-28 3-1 8-3 11-5s8-3 10-4c2 0 5-1 8-2l3-3v-43c0-47 0-49-5-52-1-1-4-2-6-3-5 0-6-2-6-7 1-4 6-14 10-20 1-2 4-6 5-9 2-4 3-6 5-7 3-1 7 0 9 2"/><path fill="#fee3bd" d="M207 222c-3 1-10 4-16 7-17 8-26 16-37 34-1 1-3 8-5 14-2 10-2 13-2 21 1 11 5 27 8 31 1 1 4 5 6 8 5 8 18 19 26 22l10 5c4 3 13 4 27 4l13-1 12-6q21-10.5 30-24c2-3 5-7 6-9 2-2 4-7 5-15 3-10 3-13 3-21-1-11-5-27-8-31-1-1-4-5-6-9-2-3-6-7-8-9-2-1-5-4-8-6-2-2-6-5-9-6s-8-3-10-4c-8-6-26-7-37-5m24 2c3 0 7 2 10 4 2 1 7 3 10 4 7 2 21 14 27 22 3 4 5 7 6 8 2 2 4 12 6 24 1 6 1 11 0 18-2 14-3 20-9 28-6 9-19 21-25 24-2 1-9 4-14 6l-9 4h-13c-13 0-13 0-25-6-2-1-5-2-7-2-5-1-21-15-26-22-2-3-4-6-5-7-7-8-9-34-6-53 2-9 3-11 7-17 3-4 9-11 13-15 6-6 9-8 18-12 21-10 29-12 42-8"/><path fill="#fee3bd" d="M240 246c-2 0-7 1-12 1-16 0-24 2-26 8 0 2-2 6-4 10-5 10-6 14-4 18 1 4 5 6 15 9 8 2 15 6 18 13 2 3 2 5 1 11 0 8-2 11-8 13-4 1-5 1-14-2-10-3-10-3-13-2-5 4-7 13-3 17 1 1 5 2 12 3 10 2 10 2 17 0 15-5 14-5 20-12 3-4 7-10 8-13 2-6 2-7 1-16-1-6-2-11-2-12-1-1-3-4-5-7-4-5-16-14-19-14-2 0-6-3-6-4 1-1 4-2 12-2 13 0 16-1 19-7 5-12 3-17-7-12m6 5c0 4-2 9-5 11-2 1-5 2-13 2-15 0-14-1-14 3 0 3 2 5 7 6 1 1 5 3 9 5 5 3 7 5 11 10 4 7 4 8 5 16s1 9-1 15c-1 5-4 9-6 12-8 9-9 9-27 12-7 1-18 0-21-2-2-2-2-8 0-12 3-4 7-4 21 2 4 2 10 0 14-4 3-3 6-13 4-18-2-10-9-16-20-19-13-3-16-7-13-17 2-8 8-19 11-21 3-3 15-4 31-4 6 0 7 1 7 3"/></svg>