<svg xmlns="http://www.w3.org/2000/svg" viewBox="0 0 450 450"><path d="M170 161c-2 0-6 2-9 3-8 2-20 8-25 13-6 5-13 19-15 27-1 8-1 24 0 32 2 8 9 22 15 27 5 5 17 11 25 13 13 4 16 4 25 0 2 0 6-2 8-3 7-1 12-5 19-12 5-4 7-8 11-16l5-10-1-15v-16l-4-10c-4-7-6-11-11-15-7-7-12-11-19-12-2-1-7-3-9-4-6-2-12-3-15-2m18 17c11 9 10 7 16 28 4 14 4 16-4 42-1 6-3 7-12 14-7 4-8 4-14 5-6 0-7 0-11-3-2-2-5-4-5-4-1 0-2-1-4-2s-4-5-7-13l-4-11v-29l3-9c5-11 5-11 16-19 5-4 6-4 12-4 6 1 7 1 14 5m50-14c-4 1-3 4 3 13l6 9v33c-1 37 0 35-9 48-6 9-4 10 14 9 7 0 13 0 16 1 10 2 12-2 5-12-7-8-7-9-7-20 0-13 0-13 15-15 5 0 13-2 16-3 8-3 16-10 20-17 3-5 3-6 3-14 0-9-2-15-8-21-4-4-7-5-20-9-9-2-11-2-31-2zm52 18c8 5 9 8 9 15 1 6-1 9-9 16-8 5-9 6-15 6-8 0-9-1-9-19 0-11 1-15 2-17 3-7 12-8 22-1"/></svg>