<svg xmlns="http://www.w3.org/2000/svg" viewBox="0 0 450 450"><path fill="#fa0404" d="M72 147c-1 6-1 150 0 156v5h9c12 0 15-1 18-5 1-2 3-4 4-5 3-1 43-1 45 0 1 1 2 3 3 5 2 5 6 5 8 0 1-2 2-4 3-4 2-2 85-1 87 0 1 0 2 2 3 4 1 3 1 4 5 4 3 0 5 0 7-1l2-2-4-5-4-5V173c0-6 0-8-2-9-2-2-151-3-153 0-1 1-1 16-1 61 0 64 0 64-5 67-2 0-4 3-5 5q-4.5 9-12 3l-2-3v-71c0-64 0-72 1-75 2-2 2-2 11-2 5 0 7-1 7-2 1-1 1-2 0-3-1-2-3-2-13-2H72zm80-4c-1 3 0 5 3 5s4-2 3-5c0 0-1-1-3-1s-3 1-3 1m101 0c-2 1-1 4 2 5 5 2 8-1 5-5-1-1-6-1-7 0m19 0c-1 1-1 3-1 3 1 2 4 2 14 2h13l4 5c3 2 6 4 7 5l3 2v126c0 2-3 5-7 9l-7 6-15 1c-7 0-14 1-15 1 0 1 1 2 2 3 2 2 3 2 25 2 12-1 31-1 42-1h19l2-3c4-4 5-5 8-5h2v-27h-5c-7 0-11-3-11-7s4-7 11-7h5V145h-3c-1 0-4 0-6-1-1 0-21-1-44-1-36-1-42-1-43 0m61 27c8 6-3 16-11 10-1-1-2-2-2-5s1-4 2-5c3-3 8-2 11 0"/><path fill="#faf7f7" d="M81 117c-9 1-10 2-12 6q-3 4.5-6 6c-7 3-6-2-6 96s-1 93 6 96q3 1.5 6 6c1 3 3 4 6 5 5 2 285 2 290 0 3-1 5-2 6-5q3-4.5 6-6c7-3 7 2 7-96s0-93-7-96q-3-1.5-6-6c-1-2-3-4-5-5-3-1-30-1-141-2-76 0-141 1-144 1m288 13c2 1 2 11 2 95 0 89 0 94-2 95-1 2-15 2-149 2-101 0-148 0-149-1-2-1-2-3-2-96 0-89 0-95 2-96 1-1 51-1 149-1 133 0 148 0 149 2"/><path fill="#09c2eb" d="M103 141c-2 2-1 9 1 9 0 1 10 1 21 1 24 0 24 0 22-7v-4h-22c-15 0-21 0-22 1m60 2c-1 3-1 5 0 7 1 1 12 1 42 1 22 0 41 0 41-1 2 0 3-7 1-9-1-1-12-1-42-1h-41zm-80 10c-1 1-1 20-1 72v72c2 2 5 1 7-1 1-2 2-5 2-72 0-65 0-70-2-71q-3-1.5-6 0m186 1c-8 3-7-3-7 70 0 64 0 66 2 69 1 2 3 3 5 4 1 1 8 1 14 1 12 0 13 0 15-3 2-1 3-3 3-3s1-1 3-2c1-1 3-2 3-3 1-2 2-101 1-122 0-1-3-4-6-7l-6-6h-12c-9 0-13 0-15 2M103 302c-2 2-1 7 1 7 0 1 10 1 21 1 17 0 21 0 22-1 1-2 0-6-1-7-2-2-41-1-43 0m61 0c-1 1-2 5-1 7 1 1 8 1 42 1 22 0 41 0 41-1 2 0 3-5 1-7-1-1-12-1-41-1-22 0-41 0-42 1"/><path fill="#12171b" d="M86 132c-12 0-13 0-14 2-1 4 1 5 13 5 10 0 12 0 14 1 1 1 2 2 4 1s42-1 44 0c1 1 2 0 3-1s3-1 5-1 4 0 5 1 2 2 3 1 18-1 44-1c29 0 43 0 45-1 3-1 4-1 9 1 4 1 6 1 8 0 4-1 84-1 91 0 5 1 7 0 8-3 1-5 9-5-136-5zm61 18c-1 1-13 1-25 1H98c0 1-2 1-4 1h-3v68c0 41 0 69 1 69 0 1 2 0 4-1 2-2 2-4 2-6v-61c0-61 0-60 5-62 4-2 151-1 154 1 2 1 2 1 3-1 2-3 1-6-2-7-1 0-3 0-4-1h-45c-25 0-45 0-46-1-2 0-3 0-5 1-3 1-3 1-6 0-2-1-3-1-5-1m178 24c-1 2 2 4 3 2 1-1 1-3-1-3 0 0-1 0-2 1m36 88c-3 1-2 5 0 6s6 0 6-2c1-1 0-4-1-4h-2c-1-1-2 0-3 0m-1 46-4 3h-51c-43 0-51 0-53-2-2-1-3-1-5 0-1 1-15 1-42 1-33 0-41 0-42-1-2-2-2-2-4 0-1 1-3 2-4 2s-3-1-4-2c-2-2-2-2-4 0s-41 2-45 0c-2-2-3-2-5 0-3 2-4 2-13 2-11 0-13 1-12 5l1 2h146c126 0 147 0 148-1s1-4 1-7c-1-6-3-6-8-2"/><path fill="#977a85" d="M71 129c-2 1-2 7-2 96 0 93 0 95 2 96 1 1 48 1 149 1 134 0 148 0 149-2 2-1 2-6 2-95 0-84 0-94-2-95-1-2-16-2-149-2-98 0-148 0-149 1m296 4c2 2 2 182 0 184-2 1-232 2-269 1H73l-1-3c-1-3-1-177 0-180l1-3h13c30-1 279 0 281 1"/><path fill="#977a85" d="M100 143c-2 1-2 3-1 5 1 4 3 2 3-3 1-4 0-5-2-2m47 3c1 4 1 5 3 3 1-2 1-7-1-7-1-1-2 0-2 4m14-3c-2 1-2 4-1 6 2 2 2 1 3-4 0-2 0-4-1-4 0 0-1 1-1 2m87 2c0 3 1 5 2 5s2-4 1-7c-2-4-4-2-3 2m-167 5-2 1v74c0 72 0 73 2 75s6 3 8 1 4-8 3-11c-1-1-1-1-2 1-1 6-6 9-8 6v-72c0-78 0-75 6-72 3 1 3 1 3-1 0-4-6-5-10-2m183 0c-2 1-3 3-3 4 0 2-1 4-1 6-2 3-2 13-2 66 0 44 1 64 1 67 1 3 2 5 5 7s4 2 19 2l15-1 7-6 7-7V162l-7-7-7-7h-15c-14 0-16 0-19 2m38 8c3 3 6 6 6 7 1 21 0 120-1 122 0 1-2 2-3 3-2 1-3 2-3 2s-1 2-3 3c-2 3-3 3-15 3-6 0-13 0-14-1-2-1-4-2-5-4-2-3-2-5-2-69 0-61 0-66 2-67 4-4 7-5 20-5h12zM103 298c-4 1-6 6-4 9 2 2 3 1 3-1 0-5 1-5 22-5 11 0 21 0 22 1 0 0 1 2 2 3 0 3 1 3 2 2 2-2 1-4-1-7-2-2-2-2-23-2zm61 0c-4 0-7 7-4 9 1 1 2 1 2-2 1-1 2-3 2-3 1-1 20-1 42-1 42 0 42 0 42 5 0 2 3 3 3 0 1-3-1-7-4-8-2 0-79-1-83 0"/><path fill="#860c0d" d="M113 132h23c6 0 1-1-11-1-13 0-18 1-12 1m71 0h43c12 0 2-1-21-1-24 0-34 1-22 1m-112 7c0 3 0 3 13 3 7 0 10 0 12 1 2 2 4-1 1-3-1-1-3-1-12-1-7 0-12-1-13-1-1-1-1-1-1 1m80 0c-2 1-3 2-2 4 1 1 1 1 2 0 0 0 1-1 3-1s3 1 3 1c1 1 1 1 2 0 2-3-4-6-8-4m100 0c-2 1-2 2-1 4 0 1 1 1 1 0 1-1 6-1 8 0 3 4 0 7-5 5-2-1-3-1-4 0-1 2 1 3 5 4s5 0 8-2c2-1 4-2 6-2 1 0 2 0 1-2-1-4 1-4 46-3 23 0 44 1 47 2h4v-3c0-4 0-4-2-2-1 1-2 1-3 0-4-1-89-1-93 0-3 1-5 1-9 0-6-2-6-2-9-1m-101 9c-2 3 4 5 7 3 2-1 2-2 1-4 0-1-1-1-1 0s-6 1-6 0-1-1-1 1m-54 0c-1 1-2 1-4 1s-3 0-2 1c0 3 7 3 8 0 0-1-1-4-2-2m-19 5c0 3 0 144 1 145v-46c0-63 0-100-1-99m229 5c2 2 4 4 4 5 1 1 1 1 1 0 0-2-1-3-5-6l-4-3zm-205 1c-4 2-4 2-4 62v61c0 2 0 4-3 6-1 1-3 4-3 5v3l2-3c2-1 3-2 4-2 0 0 2-1 3-3 1-3 1-10 1-63 0-45 0-60 1-61 1-2 12-2 76-2 60 0 76 1 77 2 2 1 2 1 2-1 1-2-1-4-9-4-10-1-144-1-147 0m220 11c-1 1-2 2-2 5s1 4 2 5c5 4 14 1 14-5s-9-9-14-5m7 4c1 2-2 4-3 2-1-1-1-3 1-3 0 0 1 0 2 1m-72 4c0 2 0 3 1 2v-3c-1-1-1 0-1 1m98 82c-4 3-4 7 0 10 2 1 4 2 8 2h5v-3c0-2 0-3-1-2-2 3-8 2-8-2s6-5 8-2c1 1 1 0 1-2v-3h-5c-4 0-6 1-8 2m-43 21c0 2 0 3 1 2v-4c-1-1-1 0-1 2m-1 6c0 1-2 3-4 5l-4 4 4-3c4-3 6-6 5-7-1 0-1 0-1 1m-53 4c0 1 0 3 1 4s1 0 0-2c0-4-1-5-1-2m6 10 2 3-2 2c-2 1-4 1-8 1-4-1-5 0-5 1l2 2c1 0 24 1 52 1h51l4-3q4.5-3 6-3c2 1 2 0 2-2 0-3-1-4-3-4s-3 1-7 5l-2 3h-19c-11 0-30 0-42 1-22 0-23 0-25-2-2-1-2-2-1-3 0 0-1-1-3-2l-4-2zm-168 5c-1 1-5 2-12 2H73c-1 0-1 1-1 3s0 2 1 1 4-1 9-1h10c4 0 8-3 6-5 0-1-1-1-2 0m54 1c0 1 2 4 5 4s5-3 5-4c-1-2-1-2-3-1s-2 1-4 0-2-1-3 1m-37 12h24c6 0 1-1-12-1-14 0-19 1-12 1m71 0h44c12 0 2-1-22-1-25 0-34 1-22 1"/></svg>