<svg xmlns="http://www.w3.org/2000/svg" viewBox="0 0 450 450"><path fill="#fefefe" d="M71 77c-9 1-10 2-12 6q-3 4.5-6 6c-2 1-4 3-5 4-1 3-1 13-1 127s0 124 1 127c1 1 3 3 5 4q3 1.5 6 6c1 3 3 4 6 5 5 2 305 2 310 0 3-1 5-2 6-5q3-4.5 6-6c2-1 4-3 5-4 1-3 2-13 2-127s-1-124-2-127c-1-1-3-3-5-4q-3-1.5-6-6c-1-2-3-4-5-5-3-1-31-2-151-2-82 0-151 1-154 1m298 11c5 3 7 5 10 12 1 6 2 12 2 120v114l-3 6c-2 6-3 7-11 9-4 2-22 2-147 2s-143 0-147-2c-8-2-9-3-11-9l-2-6V220c0-108 0-114 1-120 3-7 4-9 10-11l5-3 144 1c128 0 145 0 149 1"/><path fill="#fefefe" d="M94 126c-1 1-1 2 0 6v34c-1 16-1 31-1 34v32c1 15 1 37 1 49v27c-1 4-1 5 0 6 1 2 18 2 126 2 139 0 128 1 127-7-1-6-1-172 0-178 1-8 12-7-127-7-112 0-125 0-126 2m16 12c1 2-1 3-3 2-1 0-1-1-1-2 0-2 4-2 4 0m224 0c0 2-3 3-5 2-1-1-1-2 1-3 2-2 4-1 4 1m-18 6c6 0 9 3 9 7 0 3-3 5-9 7-2 0-6 2-8 4-4 4-5 4-7 3q-6-1.5-12 0c-2 1-3 1-7-2-2-2-5-5-7-5-2-1-34-1-77-1-41 0-76-1-77-1s-3-2-4-3l-2-3 2-3c1-1 3-3 4-3 3-1 187-1 195 0m-48 17c1 1-1 1-3 1-3 0-5 0-4-1 1 0 2-1 2-1 0-1 1-1 2 0 1 0 2 1 3 1m-93 1h-3c-1-1 0-1 2-1 1 0 2 0 1 1m43 0h-3c-1-1 0-1 2-1 1 0 2 0 1 1m57 15c1 0 3 2 5 5 4 3 5 5 5 10 1 3 2 7 3 9 1 4 1 7-2 11-1 1-2 4-2 7-1 7-4 12-8 13-3 1-16 1-16 0-1-1 2-10 4-13 2-2 2-4 2-7-1-3 0-6 0-8 2-7 1-9-5-9-6-1-8 0-10 4-1 4-3 5-9 3-2-1-3-2-4-5q0-6 3-9c1 0 2-3 3-5 2-5 3-6 9-7s21 0 22 1m-129 0c4 2 5 4 6 11 0 7-1 11-5 23 0 1-2 0-5-3-4-4-6-6-6-8 1-4-3-5-13-5l-8-1-1 4c0 4 3 7 8 7 4 1 5 2 8 5 2 4 3 5 7 6 4 0 5 1 7 5 1 4 3 5 5 5 2 1 3 2 4 4 1 3 1 20 0 22 0 0-2 1-3 2-2 1-4 3-5 5-3 5-3 5-11 5s-10-2-10-10c0-5 0-6 2-8 1-1 3-2 3-2s1-1 1-2c1-2-2-6-6-8-2 0-4-3-5-5-2-2-3-3-6-4s-5-1-6-2c0 0-2-2-3-4-1-3-3-5-4-5-3-1-4-5-4-15v-9l5-6c3-4 6-7 6-7 2-1 37-1 39 0m37 0c1 2 2 3 2 20v19c1 1 18 1 19 0s2-6 2-19c0-22-1-21 11-21 14 0 18 3 15 12-1 2-1 7-1 9v33c0 33 0 33-8 34-6 1-15 0-16-2-1-1-1-5-1-14 0-7-1-13-1-14-1-1-18-1-19 0s-1 5-1 14-1 13-2 14c-3 4-22 3-25-1-2-3-1-10 2-13 2-3 2-4 2-10-1-4-2-7-3-8-2-2-2-6 0-21 0-5 1-14 0-19 0-9 0-9 2-11 3-3 4-3 11-3 6 0 9 0 11 1m148 1c2 2 3 12 3 45 0 27 0 36-1 38-2 2-2 3-12 3-7 0-12 0-13-1-2-1-2-2-2-40v-38l3-5 3-4h9c5 1 10 1 10 2m-218 58c1 1 1 25 0 27s-13 2-15 0-2-9-1-13c1-5 10-15 13-15 1 0 2 0 3 1m170 10c4 1 8 2 9 2 2 2 1 10-1 13s-13 4-34 4c-17-1-17-1-19-3-2-3-3-9-1-13 1-2 3-3 5-3 6-1 32-1 41 0m-175 31c1 0 2 1 1 2 0 3-2 2-3-1 0-2 0-2 2-1m70 2c-1 1-3 2-5 2s-4-1-4-2c-1-1 0-1 5-1s5 0 4 1m43 0c0 1-2 2-4 2s-4-1-5-2-1-1 4-1 6 0 5 1m57 0c-2 3-29 3-31 0-2-1-1-1 15-1 15 0 17 0 16 1m45 7c3 4 3 4 0 8l-3 2-97 1c-54 0-99 0-101-1-2 0-4-2-5-3l-2-3 2-3c1-1 3-3 4-3 1-1 47-1 101-1h98zm-214 14c2 0 1 4-1 4s-3-3-1-4c0-1 0-1 2 0m225 2c0 2 0 2-2 2-2-1-3-3-2-4 2-1 3-1 4 2"/><path fill="#c6c5c6" d="M71 92c-2 1-4 2-5 6l-2 4v117c0 115 0 117 2 120 1 2 3 4 5 5 3 2 4 2 149 2s146 0 149-2c2-1 4-3 5-5 2-3 3-5 3-120V102l-3-4c-1-4-3-5-5-7-6-2-293-2-298 1m297 1c3 2 5 7 5 12 0 4-1 5-7 5h-5l1 7c1 7 1 194 0 204-1 6 1 8 4 8 4-1 7 1 7 4 0 6-5 11-11 10-2 0-3-1-3-5 0-3-1-5-1-6h-6c-7 1-257 1-264 0h-6c0 1-1 3-1 6 0 4-1 5-3 5-6 1-11-4-11-10 0-3 3-5 7-4 3 0 5-2 4-8-1-10-1-197 0-204l1-7h-5c-7 0-8-2-6-11 2-8-9-8 153-7 127 0 144 0 147 1"/><path fill="#c6c5c6" d="M85 103c-3 1-6 6-5 7 1 0 5 0 11-1 7-1 41-1 135-1 69 1 127 1 130 1 5 1 5 0 2-4l-2-3H221c-89 0-135 0-136 1m8 17-3 3c-1 2-1 67-1 164v29l2 3 3 2h252l3-2 2-3v-96c0-101 0-97-5-100-2-1-249-1-253 0m254 3 2 1v96c0 87 0 95-2 97-1 2-7 2-127 2-123 0-126 0-127-2-2-2-2-8-2-97v-95l2-2c2-2 9-2 127-2 111 0 125 0 127 2"/><path fill="#c6c5c6" d="M258 178c-5 1-8 4-9 7 0 4 1 6 9 7 4 0 8 2 9 2 1 1 1 5 2 12 0 6 0 11 1 13 1 5 7 5 9 0 1-1 3-6 4-11 2-12 1-18-6-24-6-6-11-8-19-6m12 2c3 2 9 8 11 10 2 5 1 14-2 25-3 7-8 5-8-3 0-7-2-17-4-19-1-1-3-2-5-2s-4-1-6-2c-4-2-4-6 0-8 3-2 12-3 14-1m-99-1c-1 0-4 1-5 2l-2 2v31c0 23 0 33-1 36-2 5-1 9 3 10 4 3 11 2 14 0 2-2 2-2 2-14 0-10 0-12 2-16s2-6 0-11c-2-3-2-5-2-20 0-11 0-16-1-17-2-2-6-4-10-3m7 3c2 2 3 2 3 19 0 10 1 19 2 21s1 4 0 8c-2 3-2 8-2 13 0 13 0 14-2 16-3 3-9 3-13-1-2-2-2-3-1-6 0-2 0-18 1-36v-32l3-2c3-3 6-3 9 0m36-3c-6 2-6 3-6 20 0 15 0 17-2 20-2 5-2 7 0 11s2 6 2 16c0 12 0 12 2 14 3 3 12 3 15 0 2-2 2-3 2-9-1-4-1-21-1-38 0-28 0-30-2-31-3-3-7-4-10-3m8 3 2 3v30c0 19 0 32 1 34 2 5 1 7-1 10-4 3-10 3-13 0-2-2-2-3-2-16 0-5 0-10-2-13-1-4-1-6 0-8s2-11 2-21c0-17 1-17 3-19 3-3 7-2 10 0m-89-2c-3 0-5 4-4 7 1 4 12 7 15 4s0-11-4-11h-3c-1-1-3-1-4 0m6 4c2 1 2 2 1 4-3 3-9-1-7-4 1-2 4-3 6 0m-33 0c-5 4-8 9-8 15s1 9 4 12c1 1 3 4 5 6q3 4.5 6 6c2 0 6 2 8 5 3 2 7 6 9 7 5 5 6 9 1 13-2 3-3 4-3 7 1 4 4 7 8 6 3-1 13-11 15-14 2-4 0-15-4-17l-4-6c-3-4-4-5-7-6s-6-3-8-5c-2-3-6-5-9-6-4-2-6-3-6-6-2-4 0-11 3-13 2-1 3-4 1-6s-5-1-11 2m5 11c0 4 1 8 1 9 1 1 3 3 6 4 2 1 6 3 9 6 2 2 6 4 8 5 3 1 4 2 6 6 2 2 4 6 5 7 3 3 5 8 4 12 0 3-13 15-16 15q-1.5 0-3-3c-1-1-1-2 2-5 2-3 3-5 3-9s0-4-5-8c-2-2-6-5-8-7-3-2-6-4-8-5-3-1-5-3-7-5-1-2-4-5-5-7q-6-7.5-3-15c1-5 6-8 8-8s3 1 3 8m202-12c-1 0-2 2-3 4 0 2-1 18-1 37 0 32 0 33 2 35 2 3 10 3 13 0 4-2 5-5 3-11-1-2-1-14-1-33v-28l-3-3c-3-3-6-4-10-1m8 4c1 1 2 8 2 31 1 16 1 31 1 34 1 3 1 4-1 5-2 3-9 3-11 1-2-1-1-66 0-70 2-3 7-4 9-1m-128 35c-4 3 0 8 4 6 3-1 3-5 0-6-2-1-2-1-4 0m-90 24c-3 1-5 10-3 13s7 4 10 1c5-5 0-17-7-14m7 5c2 4 0 8-4 9-3 0-5-2-5-6 0-6 6-8 9-3m136-3c-5 1-6 3-6 7 0 3 1 4 3 6 2 1 5 1 20 1 16 0 17 0 20-2 4-3 4-7 0-10-3-2-5-3-18-3-9 0-17 0-19 1m34 2c3 2 4 5 3 8-3 3-5 4-26 3-10 0-12 0-14-2s-3-4 0-7c2-2 3-3 14-3 13-1 20 0 23 1"/><path fill="#a8a6a7" d="M73 93c-3 1-4 3-5 6-2 9-1 11 6 11h5l-1 7c-1 7-1 194 0 204 1 6-1 8-4 8-4-1-7 1-7 4 0 6 5 11 11 10 2 0 3-1 3-5 0-3 1-5 1-6h6c7 1 257 1 264 0h6c0 1 1 3 1 6 0 4 1 5 3 5 6 1 11-4 11-10 0-3-3-5-7-4-3 0-5-2-4-8 1-10 1-197 0-204l-1-7h5c7 0 8-2 6-11-2-8 9-7-151-7-133 0-145 0-148 1m293 2c3 1 4 6 2 8s-5 1-10-3l-3-2H85l-3 2c-2 2-5 3-6 4-6 1-7-7-1-9 4-2 288-2 291 0m-8 10c3 4 3 5-2 4-3 0-61 0-130-1-94 0-128 0-135 1-6 1-10 1-11 1-1-1 2-6 5-7 1-1 47-1 136-1h135zm-2 10 3 2v102c0 96-1 103-2 105s-3 3-5 4c-3 1-261 1-264 0-2-1-4-2-5-4s-1-9-1-105c0-98 0-102 1-104 1-1 3-2 5-2 1-1 62-1 134-1h132z"/><path fill="#a8a6a7" d="M92 118c-6 4-6-3-6 102v96l3 4 4 3h254l4-3 3-4V124l-3-3c-1-2-3-3-4-3-1-1-58-1-127-1-115 0-126 0-128 1m254 2c5 3 5-1 5 100v96l-2 3-3 2H94l-3-2-2-3v-29c0-97 0-162 1-164l3-3c4-1 251-1 253 0"/><path fill="#a8a6a7" d="M256 181c-4 2-4 6 0 8 2 1 4 2 6 2s4 1 5 2c2 2 4 12 4 19 0 8 5 10 8 3 3-11 4-20 2-25-2-2-8-8-11-10-2-2-11-1-14 1m19 5c7 7 8 13 3 19l-2 2-2-2c-1-1-3-5-4-8-1-5-2-6-8-7-4-1-6-3-6-5 0-3 4-5 9-5 3 1 5 2 10 6m-106-4-3 2v32c-1 18-1 34-1 36-1 3-1 4 1 6 4 4 10 4 13 1 2-2 2-3 2-16 0-5 0-10 2-13 1-4 1-6 0-8s-2-11-2-21c0-17-1-17-3-19-3-3-6-3-9 0m9 2c1 2 2 4 2 17 0 9 0 17 1 20s0 6-1 10-1 10 0 15c0 8 0 10-1 11-2 3-8 3-11 0-2-1-2-2-1-5 0-3 0-18 1-35 0-27 0-32 2-33 2-3 5-2 8 0m34-2c-2 2-3 2-3 19 0 10-1 19-2 21s-1 4 0 8c2 3 2 8 2 13 0 13 0 14 2 16 3 3 9 3 13 0 2-3 3-5 1-10-1-2-1-15-1-34v-30l-2-3c-3-2-7-3-10 0m8 2c2 1 2 6 2 33 0 17 1 32 1 33 2 6-2 11-8 9-4-1-5-3-5-12q1.5-9 0-15c-1-5-2-8-1-11s1-11 1-20c0-13 1-15 2-17 3-2 6-3 8 0m-87 0c-2 3 4 7 7 4 1-2 1-3-1-4-2-3-5-2-6 0m181 2c-2 2-3 6-3 38 0 25 0 33 1 34 2 2 9 2 11-1 2-1 2-2 1-5 0-3 0-18-1-34-1-31-1-33-5-33-2 0-3 0-4 1m5 7c1 2 1 11 1 27 0 17 0 25 1 27 1 4 1 7-1 9q-3 3-6 0c-2-2-3-6 0-10 0-3 1-5 1-6-1 0-1-11-1-24 0-17 0-23 1-25 2-2 3-1 4 2m-215-4c-6 4-6 14-1 21 1 2 4 5 5 7 2 2 4 4 7 5 2 1 5 3 8 5 2 2 6 5 8 7 5 4 5 4 5 8s-1 6-3 9c-3 3-3 4-2 5q1.5 3 3 3c3 0 16-12 16-15 1-4-1-9-4-12-1-1-3-5-5-7-2-4-3-5-6-6-2-1-6-3-8-5-3-3-7-5-9-6-3-1-5-3-6-4 0-1-1-5-1-9 0-7-1-8-3-8-1 0-3 1-4 2m5 4c1 1 1 4 1 6 0 5 2 8 7 10 3 1 6 3 8 5s5 4 7 5c5 2 7 4 9 9 1 2 3 4 4 5 2 0 4 5 4 9 0 3-5 8-8 8-1 0-2-1-2-5-1-8-2-9-7-12-2-2-6-5-7-7-2-1-6-4-8-5-4-1-6-3-8-5-1-2-3-5-4-7-4-4-5-9-4-13 2-6 6-8 8-3m-7 57c-1 0-1 2-1 4 0 4 2 6 5 6 4-1 6-5 4-9-2-3-6-4-8-1m6 2c1 2 0 6-2 6-1 0-2-1-3-2-1-2 0-6 3-6zm149-3c-11 0-12 1-14 3-3 3-2 5 0 7s4 2 14 2c21 1 23 0 26-3 1-2 1-3 0-5-2-4-7-5-26-4m22 3c1 0 2 2 2 3 0 4-4 5-18 5-8 0-15 0-16-1-5-2-5-6-1-8 2 0 9-1 17-1 11 0 14 0 16 2"/><path fill="#878485" d="M75 95c-6 2-5 10 1 9 1-1 4-2 6-4l3-2h270l3 2c5 4 8 5 10 3s1-7-2-8c-3-2-287-2-291 0m13 18c-2 0-4 1-5 2-1 2-1 6-1 104 0 96 0 103 1 105s3 3 5 4c3 1 261 1 264 0 2-1 4-2 5-4s2-9 2-105V117l-3-2-2-3H222c-72 0-133 0-134 1m259 5c1 0 3 1 4 3l3 3v192l-3 4-4 3H93l-4-3-3-4v-96c0-105 0-98 6-102 2-1 13-1 128-1 69 0 126 0 127 1"/><path fill="#878485" d="M258 181c-4 4-2 7 4 9 6 1 7 2 8 7 1 3 3 7 4 8l2 2 2-2c5-6 4-12-3-19-5-4-7-5-10-6-3 0-5 0-7 1m-88 3c-2 1-2 6-2 33-1 17-1 32-1 35-1 3-1 4 1 5 3 3 9 3 11 0 1-1 1-3 1-11-1-5-1-11 0-15s2-7 1-10-1-11-1-20c0-13-1-15-2-17-3-2-6-3-8 0m42 0c-1 2-2 4-2 17 0 9 0 17-1 20s0 6 1 11q1.5 6 0 15c0 9 1 11 5 12 6 2 10-3 8-9 0-1-1-16-1-33 0-27 0-32-2-33-2-3-5-2-8 0m-108 7c-3 1-4 8-3 12 0 2 2 5 4 6 1 2 3 5 4 7 2 2 4 4 8 5 2 1 6 4 8 5 1 2 5 5 7 7 5 3 6 4 7 12 0 4 1 5 2 5 3 0 8-5 8-8 0-4-2-9-4-9-1-1-3-3-4-5-2-5-4-7-9-9-2-1-5-3-7-5s-5-4-8-5c-5-2-7-5-7-10s-2-9-3-9-2 1-3 1m211 0c-1 2-1 8-1 25 0 13 0 24 1 24 0 1-1 3-1 6-3 4-2 8 0 10q3 3 6 0c2-2 2-5 1-9-1-2-1-10-1-27 0-28-1-34-5-29m-212 61c-1 2 0 6 3 6 2 0 3-4 2-6l-2-2c-1 0-2 1-3 2m143-1c-4 2-4 6 1 8 1 1 8 1 16 1 14 0 18-1 18-5s-4-5-18-5c-8 0-15 1-17 1"/><path fill="#dfdede" d="M73 89c-6 3-9 5-10 13-2 7-2 18-2 120l1 113 2 5c5 10-8 9 156 9s151 1 156-9l3-5V222c0-102 0-113-2-120-1-8-4-11-11-13-2-1-51-1-146-1-119 0-144 0-147 1m296 2c2 2 4 3 5 7l3 4v117c0 115-1 117-3 120-1 2-3 4-5 5-3 2-4 2-149 2s-146 0-149-2c-2-1-4-3-5-5-2-3-2-5-2-120V102l2-4c1-4 3-5 5-6 5-3 292-3 298-1"/><path fill="#dfdede" d="m93 123-2 2v95c0 89 0 95 2 97 1 2 4 2 127 2 120 0 126 0 127-2 2-2 2-10 2-97v-96l-2-1c-2-2-16-2-127-2-118 0-125 0-127 2m253 1c1 1 1 191 0 192 0 1-252 1-253 0 0-1-1-84-1-117 0-32 1-73 1-74 1-2 15-2 127-2 80 0 126 0 126 1"/><path fill="#dfdede" d="M256 177c-6 1-8 3-11 11-2 6-3 7-2 9 2 2 3 1 7-2 4-2 4-2 10-1h7v15c0 8 1 15 1 16 2 2 8 1 11-1 1-1 2-4 3-6l3-9c1-3 1-6 0-11-2-10-2-12-7-16-6-5-12-7-22-5m12 1c3 1 6 2 9 6 7 6 8 12 6 24-1 5-3 10-4 11-2 5-8 5-9 0-1-2-1-7-1-13-1-7-1-11-2-12-1 0-5-2-9-2-8-1-9-3-9-7 2-6 10-9 19-7m-137 1c-5 2-10 2-14 0s-7-1-13 4c-6 6-7 9-7 18 1 7 1 8 4 11 1 1 4 4 4 6 2 3 3 4 7 6 3 1 6 2 8 4 1 2 4 5 6 6 4 2 7 7 6 9 0 1-2 3-3 4-3 2-3 3-3 7 0 5 1 8 6 9 4 1 7-1 14-8l7-7v-7c0-7-1-11-5-13-1 0-3-3-5-6-2-4-3-5-7-6s-6-2-7-5c-2-2-4-3-8-5-4-1-6-2-7-4-2-4-1-10 2-10 0 0 3-1 5-2 3-1 3-1 5 0 1 1 5 3 8 4 4 1 7 3 8 4 1 0 2 1 2 1 2 0 4-6 4-11 0-6-2-9-7-10-6-1-6-1-10 1m9 1c4 0 7 8 4 11s-14 0-15-4c-2-4 3-9 8-7zm-23 2c2 2 1 5-1 6-3 2-5 9-3 13 0 3 2 4 6 6 3 1 7 3 9 6 2 2 5 4 8 5s4 2 7 6l4 6c4 2 6 13 4 17-2 3-12 13-15 14-4 1-7-2-8-6 0-3 1-4 3-7 5-4 4-8-1-13-2-1-6-5-9-7-2-3-6-5-8-5q-3-1.5-6-6c-2-2-4-5-5-6-3-3-4-6-4-12s3-11 8-15c6-3 9-4 11-2m49-3c-2 0-3 2-4 4v33c1 25 1 30-1 33-3 9 1 14 11 14h8c3-1 4-6 4-19 0-10 0-11 1-13 2 0 3-1 5 0 3 1 7 1 10 0 2-1 3 0 5 0 1 2 1 3 1 13 0 13 1 18 4 19h8c5 0 7 0 8-2 2-2 2-3 2-40v-39c0-2-7-5-10-5-11 0-11 1-11 23-1 16-1 17-2 19-2 0-3 1-5 0-3-1-7-1-10 0-2 1-3 0-5 0-1-2-1-3-2-19 0-19 0-21-4-22s-10-1-13 1m15 3c1 1 1 6 1 17 0 15 0 17 2 20 2 5 2 7 0 11s-2 6-2 16c0 12 0 12-2 14-3 2-10 3-14 0-4-1-5-5-3-10 1-3 1-13 1-36v-31l2-2c4-3 12-3 15 1m43 0c2 1 2 3 2 31 0 17 0 34 1 38 0 6 0 7-2 9-3 3-12 3-15 0-2-2-2-2-2-14 0-10 0-12-2-16s-2-6 0-11c2-3 2-5 2-20 0-11 0-16 1-17 3-4 11-4 15 0m-27 40c3 1 3 5 0 6-4 2-8-3-4-6 2-1 2-1 4 0m113-40-2 3-1 37v37l3 2c4 3 17 2 20-2 1-2 0-72-1-75-2-3-6-5-12-5-4 0-5 0-7 3m13 2 3 3v28c0 19 0 31 1 33 2 6 1 9-3 11-3 3-11 3-13 0-2-2-2-3-2-35 0-19 1-35 1-37 2-6 8-8 13-3m-221 61c-3 2-3 4-4 8 0 8 1 10 8 10 6 0 7-2 7-10-1-11-5-14-11-8m8 3c5 6 1 15-5 14s-8-7-5-13c3-5 7-5 10-1m134-1c-4 1-6 4-6 8 0 8 3 9 24 9s27-2 27-8c0-8-3-9-25-10-10 0-19 0-20 1m39 3c4 3 4 7 0 10-3 2-4 2-20 2-15 0-18 0-20-1-2-2-3-3-3-6 0-7 4-8 25-8 13 0 15 1 18 3"/><path fill="#f2f2f2" d="M71 89c-6 2-7 4-10 11-1 6-1 12-1 120v114l2 6c2 6 3 7 11 9 4 2 22 2 147 2s143 0 147-2c8-2 9-3 11-9l3-6V220c0-108-1-114-2-120-3-7-5-9-10-12-4-1-21-1-149-1L76 86zm295 0c7 2 10 5 11 13 2 7 2 18 2 120v113l-3 5c-5 10 8 9-156 9s-151 1-156-9l-2-5-1-113c0-102 0-113 2-120 1-4 2-8 4-9 5-5-1-5 153-5 95 0 144 0 146 1"/><path fill="#f2f2f2" d="M93 125c0 1-1 42-1 74 0 33 1 116 1 117 1 1 253 1 253 0 1-1 1-191 0-192 0-1-46-1-126-1-112 0-126 0-127 2m253 1c1 0 1 2 1 5-1 6-1 172 0 178 1 8 12 7-127 7-108 0-125 0-126-2-1-1-1-2 0-6v-27c0-12 0-34-1-49v-32c0-3 0-18 1-34v-34c-2-9-15-8 126-8 109 0 125 0 126 2"/><path fill="#f2f2f2" d="M106 138c0 2 1 3 3 2 2 0 1-4-1-4-1 0-2 1-2 2m224-1c-2 1-2 2-1 3 2 1 5 0 5-2s-2-3-4-1m-67 23s-1 1-2 1c-1 1 1 1 4 1 2 0 4 0 3-1-1 0-2-1-3-1-1-1-2-1-2 0m-91 2h3c1-1 0-1-1-1-2 0-3 0-2 1m43 0h3c1-1 0-1-1-1-2 0-3 0-2 1m38 14c-6 1-7 2-9 7-1 2-2 5-3 5q-3 3-3 9c1 3 2 4 4 5 6 2 8 1 9-3 1-1 2-3 3-4 2-1 11 0 12 1s1 1 1 0c-1-1-3-2-7-2-6-1-6-1-10 1-4 3-5 4-7 2-1-2 0-3 2-9 4-9 5-11 15-12 8 0 13 1 18 6 5 4 5 6 7 16 1 5 1 8 0 11l-3 9c-1 2-2 5-3 6-3 2-9 3-11 1-1-1-1-5-1-12 0-8 0-11-1-9s-1 5 0 8c0 3 0 5-2 7-2 3-5 12-4 13 0 1 13 1 16 0 4-1 7-6 8-13 0-3 1-6 2-7 3-4 3-7 2-11-1-2-2-6-3-9 0-5-1-7-5-10-2-3-4-5-5-5-1-1-16-2-22-1m-146 1s-3 3-6 7l-5 6v9c0 10 1 14 4 15 1 0 3 2 4 5 1 2 3 4 3 4 1 1 3 1 6 2s4 2 6 4c1 2 3 5 5 5 4 2 7 6 6 8 0 1-1 2-1 2s-2 1-3 2c-2 2-2 3-2 8 0 8 2 10 10 10s8 0 11-5c1-2 3-4 5-5 1-1 3-2 3-2 1-2 1-19 0-22-1-2-2-3-4-4-2 0-4-1-5-5-2-4-3-5-7-5-4-1-5-2-7-6-3-3-4-4-8-5-2 0-5-1-6-2s-2-2-2-1 3 3 8 5c3 1 5 2 7 4 1 3 3 4 7 5s5 2 7 6c2 3 4 6 5 6 4 2 5 6 5 13v7l-7 7c-7 7-10 9-14 8-5-1-6-4-6-9 0-4 0-5 3-7 1-1 3-3 3-4 1-2-2-7-6-9-2-1-5-4-6-6-2-2-5-3-8-4-4-2-5-3-7-6 0-2-3-5-4-6-3-3-3-4-4-11 0-9 1-12 7-18 6-5 9-6 13-4 5 2 9 2 14 0s12-2 15 2c2 2 3 10 0 15-1 3-2 4-4 2-1-1-4-3-8-4-3-1-7-3-8-4-2-1-2-1-5 0-2 1-4 2-5 2-2 0-3 3-3 6 0 2 0 1 1-1l1-3 8 1c10 0 14 1 13 5 0 2 2 4 6 8 3 3 5 4 5 3 4-12 5-16 5-23-2-12-2-12-26-12-10 0-18 1-19 1m54 2c-2 2-2 2-2 11 1 5 0 14 0 19-2 15-2 19 0 21 1 1 2 4 3 8 0 6 0 7-2 10-3 3-4 10-2 13 3 4 22 5 25 1 1-1 2-5 2-14s0-13 1-14 18-1 19 0c0 1 1 7 1 14 0 9 0 13 1 14 1 2 10 3 16 2 8-1 8-1 8-34v-33c0-2 0-7 1-9 3-9-1-12-15-12-12 0-11-1-11 21 0 13-1 18-2 19s-18 1-19 0v-19c0-22 0-21-13-21-7 0-8 0-11 3m18-1c4 1 4 3 4 22 1 16 1 17 2 19 2 0 3 1 5 0 3-1 7-1 10 0 2 1 3 0 5 0 1-2 1-3 2-19 0-22 0-23 11-23 3 0 10 3 10 5v39c0 37 0 38-2 40-1 2-3 2-8 2h-8c-3-1-4-6-4-19 0-10 0-11-1-13-2 0-3-1-5 0-3 1-7 1-10 0-2-1-3 0-5 0-1 2-1 3-1 13 0 13-1 18-4 19h-8c-10 0-14-5-11-14 2-3 2-8 1-33v-33c1-2 2-4 4-4 3-2 9-2 13-1m130 2-3 5v38c0 38 0 39 2 40 1 1 6 1 13 1 10 0 10-1 12-3 1-2 1-11 1-38 0-33-1-43-3-45 0-1-5-1-10-2h-9zm16 0 4 4c1 3 2 73 1 75-3 4-16 5-20 2l-3-2v-37l1-37 2-3c2-3 3-3 7-3 3 0 6 1 8 1"/><path fill="#f2f2f2" d="M103 240c-3 4-5 8-6 10-1 4-1 11 1 13s14 2 15 0 1-26 0-27c-3-2-5-1-10 4m8 4c1 2 2 4 2 9 0 8-1 10-7 10-7 0-8-2-8-10 1-4 1-6 4-8 4-4 6-4 9-1m131 2c-2 0-4 1-5 3-2 4-1 10 1 13 2 2 2 2 19 3 21 0 32-1 34-4s3-11 1-13c-3-2-39-4-50-2m43 2c3 2 4 4 4 8 0 6-6 8-27 8s-24-1-24-9 3-9 26-9c14 1 18 1 21 2m-179 30c1 3 3 4 3 1 1-1 0-2-1-2-2-1-2-1-2 1m63 1c0 1 2 2 4 2s4-1 5-2 1-1-4-1-6 0-5 1m43 0c1 1 3 2 5 2s4-1 4-2c1-1 0-1-5-1s-5 0-4 1m35 0c2 3 29 3 31 0 1-1-1-1-16-1-16 0-17 0-15 1m-140 21c-2 1-1 4 1 4s3-4 1-4c-2-1-2-1-2 0m223 0c-1 1 0 3 2 4 2 0 2 0 2-2-1-3-2-3-4-2"/></svg>